<svg width="32" height="32" viewBox="0 0 32 32" fill="none" xmlns="http://www.w3.org/2000/svg">
<g id="Logo" clip-path="url(#clip0_156_863)">
<g id="Layer 2">
<g id="Layer 1">
<path id="Vector" d="M0 32L22.1773 31.7247L23.0094 29.0311L23.7755 26.5529L26.0741 19.1545L27.6723 13.9768L32 0H27.3071L22.9914 13.9469H11.5286C11.3025 13.9594 11.0863 14.044 10.9118 14.1884C10.7373 14.3327 10.6136 14.5292 10.5589 14.749L9.20015 19.1545H21.3872L19.0887 26.535H19.0348L2.32248 26.8163C2.12413 26.8146 1.93143 26.8824 1.77778 27.0079L1.47849 27.3431C1.42467 27.4268 1.38239 27.5174 1.35279 27.6124L0 32Z" fill="#60C9DD"/>
<path id="Vector_2" d="M1.79578 27.0081C1.94943 26.8826 2.14213 26.8149 2.34048 26.8165L19.0528 26.5352C13.067 23.4346 7.2189 23.1652 3.48975 25.5775C2.86513 25.9785 2.29564 26.4594 1.79578 27.0081Z" fill="#0497AA"/>
</g>
</g>
</g>
<defs>
<clipPath id="clip0_156_863">
<rect width="32" height="32" fill="white"/>
</clipPath>
</defs>
</svg>
