<svg width="164" height="32" viewBox="0 0 164 32" fill="none" xmlns="http://www.w3.org/2000/svg">
<g id="Layer 1">
<path id="Vector" d="M52.4456 6.16259C52.0116 6.17823 51.579 6.10615 51.1735 5.95067C50.768 5.7952 50.398 5.55951 50.0858 5.25773C49.7848 4.97397 49.5468 4.63017 49.3872 4.24859C49.2276 3.867 49.1499 3.45615 49.1592 3.04263C49.1575 2.64194 49.2389 2.24526 49.3984 1.87768C49.5579 1.5101 49.792 1.17962 50.0858 0.907157C50.398 0.605371 50.768 0.369687 51.1735 0.214209C51.579 0.0587311 52.0116 -0.0133439 52.4456 0.00229709C53.3107 -0.0295586 54.1551 0.270902 54.8055 0.842007C55.1087 1.11473 55.3487 1.45036 55.5088 1.82546C55.6688 2.20055 55.745 2.60607 55.7321 3.01367C55.7394 3.42819 55.663 3.83993 55.5075 4.22425C55.352 4.60858 55.1207 4.95762 54.8272 5.25049C54.5145 5.55839 54.1415 5.79835 53.7317 5.9553C53.3219 6.11226 52.884 6.18283 52.4456 6.16259Z" fill="#60C9DD"/>
<path id="Vector_2" d="M5.3423 31.7089H0V2.95605H20.9928V7.47312H5.3423V31.7089ZM4.92969 16.2249H19.2193V20.6624H4.92969V16.2249Z" fill="#0497AA"/>
<path id="Vector_3" d="M31.5834 31.9913C30.0918 32.0304 28.6097 31.7438 27.2401 31.1516C26.0868 30.6586 25.0976 29.8476 24.388 28.8134C23.7156 27.8129 23.3645 26.631 23.3818 25.4256C23.3617 24.2552 23.6675 23.1023 24.2649 22.0957C24.953 21.0247 25.9686 20.2046 27.1605 19.7576C28.8638 19.1182 30.6776 18.8253 32.4955 18.8961H38.8658V22.3057H32.8937C31.1708 22.3057 29.9981 22.5807 29.3828 23.1454C29.085 23.4096 28.8485 23.7356 28.6897 24.1007C28.5309 24.4658 28.4537 24.8611 28.4635 25.2591C28.4552 25.6843 28.5519 26.1049 28.7451 26.4837C28.9383 26.8626 29.222 27.1879 29.571 27.4308C30.485 28.0189 31.5627 28.3004 32.6476 28.2343C33.8332 28.2522 35.0023 27.9549 36.0354 27.3729C37.0244 26.791 37.7893 25.8936 38.207 24.8248L39.0902 27.9303C38.6031 29.2127 37.6702 30.2767 36.4624 30.9272C34.9554 31.6975 33.2744 32.0641 31.5834 31.9913ZM38.4821 31.709V27.2281L38.236 26.3305V18.5631C38.2722 17.9135 38.1681 17.2637 37.9308 16.6579C37.6935 16.0521 37.3285 15.5044 36.8606 15.0523C35.934 14.2222 34.5441 13.8048 32.691 13.8C31.4759 13.8025 30.2688 13.998 29.115 14.3791C28.0069 14.7196 26.9712 15.262 26.0602 15.9789L24.0478 12.2436C25.3185 11.3042 26.7517 10.6072 28.2753 10.1878C29.9219 9.70951 31.6278 9.46581 33.3425 9.46387C36.5421 9.46387 39.0057 10.2288 40.7334 11.7586C42.4611 13.2884 43.3249 15.6435 43.3249 18.8237V31.709H38.4821Z" fill="#0497AA"/>
<path id="Vector_4" d="M54.9866 9.77441H49.8977V31.7083H54.9866V9.77441Z" fill="#0497AA"/>
<path id="Vector_5" d="M61.8057 31.7091V9.77524H66.6919V15.8125L66.12 14.0462C66.7257 12.5969 67.8122 11.4005 69.1966 10.6584C70.8099 9.83526 72.6055 9.43429 74.4158 9.49292V14.3792C74.2204 14.3792 74.0321 14.3285 73.8367 14.314H73.3083C72.4546 14.2688 71.6005 14.3948 70.7962 14.6844C69.9918 14.9741 69.2536 15.4216 68.6247 16.0007C67.4713 17.1251 66.897 18.8359 66.9018 21.1331V31.7091H61.8057Z" fill="#0497AA"/>
<path id="Vector_6" d="M88.213 31.9114C86.1439 31.9234 84.0902 31.5553 82.154 30.8256C80.4803 30.2489 78.9671 29.2839 77.7383 28.0096L78.6866 26.4533C79.8453 27.5761 81.2227 28.4484 82.7331 29.0159C84.4586 29.7197 86.306 30.0764 88.1695 30.0655C89.7724 30.1195 91.3705 29.8614 92.8748 29.3054C93.944 28.8979 94.8737 28.1919 95.5532 27.2713C96.1376 26.444 96.4466 25.4537 96.4363 24.4409C96.4926 23.3652 96.141 22.308 95.4518 21.4802C94.7354 20.7031 93.8517 20.0991 92.8676 19.7139C91.7335 19.2588 90.5673 18.8886 89.3784 18.6063C88.1188 18.3023 86.8448 17.9814 85.5563 17.6436C84.3348 17.3231 83.1507 16.8742 82.0237 16.3044C80.991 15.7921 80.1083 15.0215 79.4611 14.0676C78.7726 12.9684 78.4343 11.686 78.4911 10.3902C78.5002 9.04779 78.8947 7.73621 79.6276 6.61152C80.4391 5.37788 81.5942 4.40899 82.9503 3.82455C84.7785 3.04629 86.7557 2.6805 88.7414 2.75319C90.3367 2.76367 91.9219 3.00755 93.4467 3.47708C94.8613 3.88516 96.1992 4.52348 97.4063 5.36643L96.5883 7.02413C95.4005 6.21316 94.0906 5.59732 92.7083 5.19994C91.4087 4.81318 90.0611 4.61093 88.7052 4.59911C87.1479 4.55032 85.5968 4.81622 84.1447 5.38091C83.0732 5.79895 82.1473 6.52108 81.4808 7.45847C80.9034 8.31278 80.6003 9.32293 80.6121 10.354C80.56 11.4245 80.9055 12.4764 81.5821 13.3075C82.2856 14.0895 83.1635 14.6947 84.1447 15.0738C85.2898 15.5393 86.4713 15.9098 87.6773 16.1813C88.9658 16.4853 90.2398 16.8039 91.4994 17.1513C92.7066 17.4698 93.8762 17.9163 94.9886 18.4833C96.0196 19 96.9091 19.7603 97.5801 20.6984C98.2752 21.7738 98.6192 23.0385 98.5646 24.3178C98.5665 25.6509 98.1818 26.956 97.457 28.0748C96.6302 29.306 95.4668 30.2735 94.1054 30.8618C92.2396 31.6312 90.2297 31.9892 88.213 31.9114Z" fill="#60C9DD"/>
<path id="Vector_7" d="M113.716 31.8535C111.718 31.8964 109.744 31.4147 107.99 30.4564C106.358 29.5554 105.007 28.2199 104.088 26.5981C103.112 24.8859 102.613 22.9439 102.64 20.9735C102.598 19.0088 103.057 17.0658 103.972 15.3271C104.826 13.7355 106.097 12.4066 107.65 11.4833C109.25 10.5786 111.055 10.1002 112.893 10.0938C114.731 10.0875 116.54 10.5535 118.146 11.4471C119.691 12.3529 120.957 13.6681 121.802 15.2475C122.714 16.9874 123.172 18.9296 123.134 20.8938C123.14 20.983 123.14 21.0725 123.134 21.1617C123.126 21.2629 123.126 21.3645 123.134 21.4657H104.189V19.8804H122.012L121.194 20.6622C121.248 19.0975 120.894 17.5457 120.166 16.1596C119.478 14.8702 118.455 13.79 117.205 13.0324C116.256 12.4516 115.199 12.0709 114.098 11.9137C112.997 11.7566 111.875 11.8262 110.802 12.1184C109.729 12.4106 108.726 12.9192 107.857 13.6129C106.988 14.3066 106.269 15.1708 105.746 16.1524C105.02 17.5535 104.654 19.1134 104.682 20.6912V21.0603C104.651 22.691 105.055 24.3004 105.854 25.7222C106.611 27.0572 107.727 28.1532 109.076 28.8856C110.515 29.6556 112.127 30.0443 113.759 30.0148C115.073 30.03 116.378 29.7839 117.596 29.291C118.778 28.8077 119.817 28.0303 120.615 27.0324L121.809 28.3861C120.876 29.5355 119.668 30.4317 118.298 30.9921C116.844 31.5838 115.286 31.8768 113.716 31.8535Z" fill="#60C9DD"/>
<path id="Vector_8" d="M134.701 31.8531C133.288 31.8859 131.884 31.6272 130.575 31.093C129.49 30.6481 128.561 29.8926 127.904 28.9213C127.281 27.9691 126.959 26.8521 126.977 25.7145C126.964 24.6731 127.226 23.6467 127.737 22.7393C128.337 21.7736 129.219 21.0155 130.264 20.5677C131.76 19.9484 133.373 19.6619 134.991 19.728H142.874V21.3567H135.027C132.812 21.3567 131.256 21.7693 130.372 22.5873C129.94 22.9747 129.597 23.4508 129.366 23.983C129.135 24.5152 129.021 25.091 129.033 25.6711C129.014 26.3037 129.146 26.9319 129.417 27.5034C129.689 28.075 130.094 28.5735 130.597 28.9575C131.881 29.8511 133.429 30.2848 134.991 30.1881C136.604 30.2395 138.196 29.8113 139.566 28.9575C140.848 28.0924 141.82 26.8392 142.338 25.3815L142.917 26.7786C142.37 28.3043 141.337 29.6086 139.978 30.4922C138.394 31.46 136.556 31.9338 134.701 31.8531ZM142.425 31.6938V26.8221L142.338 26.0982V18.0268C142.338 16.0361 141.803 14.516 140.717 13.4736C139.631 12.4312 138.053 11.91 135.975 11.91C133.265 11.8956 130.641 12.8595 128.584 14.6245L127.556 13.1406C128.683 12.149 129.994 11.389 131.415 10.9038C132.934 10.372 134.532 10.1027 136.142 10.1075C138.791 10.1075 140.833 10.7735 142.259 12.1199C143.685 13.4663 144.394 15.457 144.394 18.1137V31.7083L142.425 31.6938Z" fill="#60C9DD"/>
<path id="Vector_9" d="M149.324 12.0338V10.2675H162.151V12.0338H149.324ZM159.096 31.8539C158.304 31.9099 157.509 31.8004 156.761 31.5325C156.013 31.2646 155.33 30.844 154.753 30.2975C153.708 29.1285 153.169 27.5925 153.255 26.0266V5.58398H155.311V25.8528C155.244 26.996 155.62 28.1209 156.36 28.9945C156.745 29.379 157.208 29.6768 157.717 29.8678C158.226 30.0589 158.771 30.1387 159.314 30.1021C160.535 30.1496 161.728 29.7244 162.644 28.9149L163.505 30.3627C162.937 30.8897 162.256 31.2808 161.514 31.5064C160.731 31.7459 159.915 31.8631 159.096 31.8539Z" fill="#60C9DD"/>
</g>
</svg>
